<svg viewBox="0 0 332 384" version="1.1" xmlns="http://www.w3.org/2000/svg"><path d="M166.682124,0 L331.112124,95.2926608 L331.86,96.5904704 L331.86,287.99047 L331.102839,289.293617 L166.672839,383.024448 L165.187161,383.024448 L0.757161152,289.293617 L2.84217094e-13,287.99047 L2.84217094e-13,96.5904704 L0.747876133,95.2926608 L165.177876,0 L166.682124,0 Z M166.893,379.44581 L324.409,289.65581 L145.076,294.611 L166.893,379.44581 Z M7.551,289.712 L163.594,378.662 L141.982,294.62181 L7.551,289.712 Z M236.887,118.19081 L145.676,291.59281 L327.88,286.557 L236.887,118.19081 Z M3,101.237 L3,286.543 L140.146,291.55281 L3,101.237 Z M4.608,98.337 L142.955,290.319 L234.371,116.32081 L4.608,98.337 Z M328.86,98.414 L239.157,116.082 L328.86,282.06081 L328.86,98.414 Z M170.393,5.618 L237.594,113.33 L326.157,95.8888096 L170.393,5.618 Z M234.024,113.27581 L165.425,3.322 L6.423,95.4708096 L234.024,113.27581 Z"></path></svg>
