<svg viewBox="0 0 283 353" version="1.1" xmlns="http://www.w3.org/2000/svg">
    <path d="M133.878656,-1.83122291 L194.058307,34.8885643 L273.713104,152.117742 L274.627736,153.386963 C279.460852,160.159214 281.901383,164.685907 281.997071,167.33985 L282,167.5 L282,289.44466 L268.558026,310.12462 L196.369175,351.014808 L47.8037532,345.475081 L-0.498439717,291.071558 L-1.00196266,107.285682 L133.878656,-1.83122291 Z M85.8417857,144.960234 L69.8067857,145.924234 L52.4937857,179.871234 L49.9998214,341.523145 L48.2820373,341.496777 L49.196,342.525 L194.883037,347.956777 L204,316.286 L204,302.831234 L85.8417857,144.960234 Z M232.877786,308.059234 L206.730786,317.646234 L198.458037,346.381777 L213.191037,338.036777 L232.877786,308.059234 Z M2.49003734,287.836777 L2.497,289.928 L47.0220373,340.076777 L47.3247857,320.401234 L2.49003734,287.836777 Z M276.786037,291.958777 L234.453786,307.481234 L215.094037,336.958777 L266.442,307.874 L276.786037,291.958777 Z M2.01103734,112.739777 L2.48703734,286.598777 L47.3437857,319.179234 L49.492,179.966 L2.01103734,112.739777 Z M206.999786,253.492234 L206.999786,314.351234 L255.680786,296.501234 L206.999786,253.492234 Z M100.658786,144.069234 L87.0377857,144.888234 L203.999786,301.161234 L203.999786,286.286234 L100.658786,144.069234 Z M206.999786,208.756234 L206.999786,252.158234 L256.747786,296.110234 L278.999037,287.951777 L278.999037,282.676777 L206.999786,208.756234 Z M159.416786,140.537234 L101.843786,143.998234 L204,284.585234 L204,185.121 L159.416786,140.537234 Z M213.260786,182.508234 L206.999786,185.452234 L206.999786,207.322234 L278.999037,281.241777 L278.999037,250.663777 L213.260786,182.508234 Z M221.728786,178.527234 L214.216786,182.059234 L278.999037,249.224777 L278.999037,240.610777 L221.728786,178.527234 Z M242.088786,168.955234 L222.677786,178.081234 L278.999037,239.135777 L278.999037,212.016777 L242.088786,168.955234 Z M272.011037,154.886777 L243.026786,168.514234 L278.999037,210.480777 L279,167.5 C279,165.802925 276.88536,161.806167 272.680287,155.828609 L272.011037,154.886777 Z M133.009786,11.4642337 L129.047786,29.4432337 L161.329,138.208 L205.815786,182.694234 L270.271037,152.388777 L191.941,37.111 L186.671037,33.8957771 L133.009786,11.4642337 Z M53.6090373,66.9637771 L29.0310373,86.8467771 L30.4487857,147.803234 L50.7917857,176.605234 L58.8977857,160.710234 L53.6090373,66.9637771 Z M131.613037,3.85877709 L54.5680373,66.1877771 L59.7997857,158.942234 L126.077,28.987 L131.613037,3.85877709 Z M28.0500373,87.6407771 L2.53603734,108.281777 L29.4147857,146.338234 L28.0500373,87.6407771 Z M99.7637857,87.1852337 L71.3877857,142.823234 L125.254786,139.585234 L99.7637857,87.1852337 Z M103.771786,79.3252337 L100.331786,86.0692337 L126.334786,139.520234 L130.670786,139.259234 L103.771786,79.3252337 Z M127.129786,33.5252337 L104.353786,78.1822337 L131.737786,139.195234 L158.023786,137.615234 L127.129786,33.5252337 Z M135.012037,2.37477709 L133.228786,10.4712337 L181.029037,30.4527771 L135.012037,2.37477709 Z"></path>
</svg>
