<svg viewBox="0 0 24 24" version="1.1" xmlns="http://www.w3.org/2000/svg"><path d="M22.7234043,0 C23.4285957,0 24,0.571659574 24,1.27659574 L24,1.27659574 L24,22.7234043 C24,23.4283404 23.4285957,24 22.7234043,24 L22.7234043,24 L1.27659574,24 C0.571404255,24 0,23.4283404 0,22.7234043 L0,22.7234043 L0,1.27659574 C0,0.571659574 0.571404255,0 1.27659574,0 L1.27659574,0 Z M7.05882353,9.17647059 L3.52941176,9.17647059 L3.52941176,20.4705882 L7.05882353,20.4705882 L7.05882353,9.17647059 Z M12.5929412,10.7152941 L12.4941176,10.7152941 L12.4941176,9.17647059 L9.17647059,9.17647059 L9.17647059,20.4705882 L12.7058824,20.4705882 L12.7058824,14.4635294 C12.5996996,13.1831013 13.5442701,12.0559138 14.8235294,11.9364706 L14.9576471,11.9364706 C16.08,11.9364706 16.9129412,12.6423529 16.9129412,14.4211765 L16.9129412,20.4705882 L20.4423529,20.4705882 L20.4705882,13.6094118 C20.4705882,10.2141176 18.3105882,8.89411765 16.1647059,8.89411765 C14.7349091,8.82252326 13.374756,9.51604008 12.5929412,10.7152941 Z M5.35764706,3.24705882 L5.29411765,3.24705882 C4.16355828,3.24705882 3.24705882,4.16355828 3.24705882,5.29411765 C3.24705882,6.37328796 4.08213374,7.25741607 5.14134325,7.33556166 L5.29411765,7.34117647 C5.83333211,7.35444175 6.35571582,7.15287896 6.74626812,6.78086135 C7.13682043,6.40884373 7.36352386,5.89686926 7.37647059,5.35764706 L7.37647059,5.29411765 C7.38022785,4.75494423 7.1696387,4.23636277 6.79103304,3.85246193 C6.41242739,3.4685611 5.89682066,3.25079008 5.35764706,3.24705882 Z" fill-rule="nonzero"></path></svg>
