<svg viewBox="0 0 24 24" version="1.1" xmlns="http://www.w3.org/2000/svg"><path d="M22.7234043,0 C23.3845213,0 23.9280519,0.502435173 23.9934107,1.14608907 L24,1.27659574 L24,22.7234043 C24,23.3842819 23.4977892,23.9280219 22.853953,23.9934079 L22.7234043,24 L1.27659574,24 C0.615478723,24 0.0719481383,23.4975648 0.00658930352,22.8539109 L0,22.7234043 L0,1.27659574 C0,0.615718085 0.502210771,0.0719780585 1.146047,0.00659210854 L1.27659574,0 L22.7234043,0 Z M18.752,2.4 L5.248,2.4 L5.07471312,2.40565767 C3.6417155,2.49547253 2.49547253,3.6417155 2.40565767,5.07471312 L2.4,5.248 L2.4,18.752 L2.40565767,18.9252869 C2.49547253,20.3582845 3.6417155,21.5045275 5.07471312,21.5943423 L5.248,21.6 L18.752,21.6 L18.9252869,21.5943423 C20.3582845,21.5045275 21.5045275,20.3582845 21.5943423,18.9252869 L21.6,18.752 L21.6,5.248 L21.5943423,5.07471312 C21.5045275,3.6417155 20.3582845,2.49547253 18.9252869,2.40565767 L18.752,2.4 Z M18.752,4 C19.3981732,4 19.9296466,4.49108767 19.9935567,5.12039925 L20,5.248 L20,18.752 L19.9935567,18.8796008 C19.9339073,19.4669582 19.4669582,19.9339073 18.8796008,19.9935567 L18.752,20 L5.248,20 L5.12039925,19.9935567 C4.53304177,19.9339073 4.06609268,19.4669582 4.00644328,18.8796008 L4,18.752 L4,5.248 L4.00644328,5.12039925 C4.06609268,4.53304177 4.53304177,4.06609268 5.12039925,4.00644328 L5.248,4 L18.752,4 Z M12,7.2 C9.3490332,7.2 7.2,9.3490332 7.2,12 C7.2,14.6509668 9.3490332,16.8 12,16.8 C14.6509668,16.8 16.8,14.6509668 16.8,12 C16.8,10.7269608 16.2942872,9.50606207 15.3941125,8.60588745 C14.4939379,7.70571283 13.2730392,7.2 12,7.2 Z M12,8.8 C13.7673112,8.8 15.2,10.2326888 15.2,12 C15.2,12.8486928 14.8628581,13.6626253 14.2627417,14.2627417 C13.6626253,14.8628581 12.8486928,15.2 12,15.2 C10.2326888,15.2 8.8,13.7673112 8.8,12 C8.8,10.2326888 10.2326888,8.8 12,8.8 Z M17.2,5.6 C16.5372583,5.6 16,6.1372583 16,6.8 C16,7.4627417 16.5372583,8 17.2,8 C17.8627417,8 18.4,7.4627417 18.4,6.8 C18.4,6.1372583 17.8627417,5.6 17.2,5.6 Z" fill-rule="nonzero"></path></svg>
