<svg viewBox="0 0 24 24" version="1.1" xmlns="http://www.w3.org/2000/svg"><path d="M22.7234043,0 L1.27659574,0 C0.571404255,0 0,0.571659574 0,1.27659574 L0,22.7234043 C0,23.4283404 0.571404255,24 1.27659574,24 L22.7234043,24 C23.4285957,24 24,23.4283404 24,22.7234043 L24,1.27659574 C24,0.571659574 23.4285957,0 22.7234043,0 Z M6.93574468,15.9153191 L4.12161702,15.9153191 C3.95234043,15.9153191 3.82519149,15.8387234 3.75395745,15.7233191 C3.67991489,15.6035745 3.67557447,15.4470638 3.75395745,15.2918298 L6.744,10.0151489 C6.74757447,10.0095319 6.74757447,10.0054468 6.744,9.99906383 L4.8413617,6.70468085 C4.76195745,6.54791489 4.75097872,6.39319149 4.82502128,6.27319149 C4.89702128,6.15651064 5.03948936,6.0972766 5.20902128,6.0972766 L8.02289362,6.0972766 C8.4546383,6.0972766 8.66655319,6.37531915 8.8067234,6.62476596 C8.8067234,6.62476596 10.7300426,9.98017021 10.7415319,9.99880851 C10.6274043,10.1994894 7.70348936,15.3714894 7.70348936,15.3714894 C7.55923404,15.6314043 7.35651064,15.9153191 6.93574468,15.9153191 Z M20.243234,2.85753191 L14.0124255,13.8750638 C14.0085957,13.8804255 14.0085957,13.8880851 14.0124255,13.8937021 L17.9798298,21.1427234 C18.0584681,21.2982128 18.0602553,21.4570213 17.9851915,21.5770213 C17.9142128,21.6931915 17.7817021,21.756766 17.6121702,21.756766 L14.8011064,21.756766 C14.3701277,21.756766 14.154383,21.4705532 14.0147234,21.2213617 C14.0147234,21.2213617 10.0261277,13.9039149 10.0164255,13.8845106 C10.2155745,13.5314043 16.2786383,2.77965957 16.2786383,2.77965957 C16.4297872,2.50825532 16.6118298,2.24374468 17.0315745,2.24374468 L19.8750638,2.24374468 C20.0445957,2.24374468 20.1778723,2.30782979 20.2491064,2.42323404 C20.3239149,2.54348936 20.321617,2.70204255 20.243234,2.85753191 Z" fill-rule="nonzero"></path></svg>
