<svg viewBox="0 0 24 24" version="1.1" xmlns="http://www.w3.org/2000/svg"><path d="M22.7234043,0 C23.4285957,0 24,0.571659574 24,1.27659574 L24,1.27659574 L24,22.7234043 C24,23.4283404 23.4285957,24 22.7234043,24 L22.7234043,24 L1.27659574,24 C0.571404255,24 0,23.4283404 0,22.7234043 L0,22.7234043 L0,1.27659574 C0,0.571659574 0.571404255,0 1.27659574,0 L1.27659574,0 Z M7.63869732,6.31992337 C4.52452107,6.31992337 2,8.86245211 2,11.997318 C2,15.1321839 4.52471264,17.6745211 7.63869732,17.6745211 C10.752682,17.6745211 13.2772031,15.1327586 13.2772031,11.997318 C13.2772031,8.86187739 10.7528736,6.31992337 7.63869732,6.31992337 Z M16.643295,6.65249042 C15.0862069,6.65249042 13.8241379,9.04597701 13.8241379,11.997318 C13.8241379,14.948659 15.0863985,17.3421456 16.6434866,17.3421456 C18.2005747,17.3421456 19.4628352,14.948659 19.4628352,11.997318 C19.4626437,9.04521073 18.2003831,6.65249042 16.643295,6.65249042 Z M21.001341,7.2091954 C20.4538314,7.2091954 20.0099617,9.35306513 20.0099617,11.997318 C20.0099617,14.6415709 20.4536398,16.7854406 21.001341,16.7854406 C21.5490421,16.7854406 21.9929119,14.6409962 21.9929119,11.997318 C21.9929119,9.35287356 21.5488506,7.2091954 21.001341,7.2091954 Z" fill-rule="nonzero"></path></svg>
