<?xml version="1.0" encoding="UTF-8"?>
<svg viewBox="0 0 495 150" version="1.1" xmlns="http://www.w3.org/2000/svg" xmlns:xlink="http://www.w3.org/1999/xlink">
    <title>illu-ux</title>
    <defs>
        <rect id="path-1" x="1.09674588" y="0.370179949" width="493.903254" height="149.62982"></rect>
        <polygon id="path-3" points="0.36503856 36.1954891 62.1825545 0.370179949 124.00007 36.1954891 124.00007 108.152386 62.1825545 143.390525 0.36503856 108.152386"></polygon>
        <polygon id="path-5" points="0.254498715 18.8491021 31.592545 0.687660668 62.9305913 18.8491021 62.9305913 55.3272512 31.592545 73.1910299 0.254498715 55.3272512"></polygon>
    </defs>
    <g id="illu-ux" stroke="none" stroke-width="1" fill="none" fill-rule="evenodd">
        <mask id="mask-2" fill="white">
            <use xlink:href="#path-1"></use>
        </mask>
        <g id="Mask"></g>
        <g id="Illu" mask="url(#mask-2)">
            <g transform="translate(10.000000, 0.000000)">
                <mask id="mask-4" fill="white">
                    <use xlink:href="#path-3"></use>
                </mask>
                <g id="Mask" stroke="none" fill="none"></g>
                <path d="M19.2682927,0 L-35.3740315,150 L-39.2682927,150 L15.3722007,0 L19.2682927,0 Z M29.6333312,0 L-25.008993,150 L-28.9032541,150 L25.7372392,0 L29.6333312,0 Z M39.6333312,0 L-15.008993,150 L-18.9032541,150 L35.7372392,0 L39.6333312,0 Z M49.6333312,0 L-5.00899299,150 L-8.90325412,150 L45.7372392,0 L49.6333312,0 Z M59.6333312,0 L4.99100701,150 L1.09674588,150 L55.7372392,0 L59.6333312,0 Z M69.6333312,0 L14.991007,150 L11.0967459,150 L65.7372392,0 L69.6333312,0 Z M79.6333312,0 L24.991007,150 L21.0967459,150 L75.7372392,0 L79.6333312,0 Z M89.6333312,0 L34.991007,150 L31.0967459,150 L85.7372392,0 L89.6333312,0 Z M99.6333312,0 L44.991007,150 L41.0967459,150 L95.7372392,0 L99.6333312,0 Z M109.633331,0 L54.991007,150 L51.0967459,150 L105.737239,0 L109.633331,0 Z M119.633331,0 L64.991007,150 L61.0967459,150 L115.737239,0 L119.633331,0 Z M129.633331,0 L74.991007,150 L71.0967459,150 L125.737239,0 L129.633331,0 Z M139.633331,0 L84.991007,150 L81.0967459,150 L135.737239,0 L139.633331,0 Z M149.633331,0 L94.991007,150 L91.0967459,150 L145.737239,0 L149.633331,0 Z M159.633331,0 L104.991007,150 L101.096746,150 L155.737239,0 L159.633331,0 Z M169.633331,0 L114.991007,150 L111.096746,150 L165.737239,0 L169.633331,0 Z M179.633331,0 L124.991007,150 L121.096746,150 L175.737239,0 L179.633331,0 Z M189.633331,0 L134.991007,150 L131.096746,150 L185.737239,0 L189.633331,0 Z M199.633331,0 L144.991007,150 L141.096746,150 L195.737239,0 L199.633331,0 Z M209.633331,0 L154.991007,150 L151.096746,150 L205.737239,0 L209.633331,0 Z M219.633331,0 L164.991007,150 L161.096746,150 L215.737239,0 L219.633331,0 Z M229.633331,0 L174.991007,150 L171.096746,150 L225.737239,0 L229.633331,0 Z M239.633331,0 L184.991007,150 L181.096746,150 L235.737239,0 L239.633331,0 Z M249.633331,0 L194.991007,150 L191.096746,150 L245.737239,0 L249.633331,0 Z M259.633331,0 L204.991007,150 L201.096746,150 L255.737239,0 L259.633331,0 Z M269.633331,0 L214.991007,150 L211.096746,150 L265.737239,0 L269.633331,0 Z M279.633331,0 L224.991007,150 L221.096746,150 L275.737239,0 L279.633331,0 Z M289.633331,0 L234.991007,150 L231.096746,150 L285.737239,0 L289.633331,0 Z M299.633331,0 L244.991007,150 L241.096746,150 L295.737239,0 L299.633331,0 Z M309.633331,0 L254.991007,150 L251.096746,150 L305.737239,0 L309.633331,0 Z M319.633331,0 L264.991007,150 L261.096746,150 L315.737239,0 L319.633331,0 Z M329.633331,0 L274.991007,150 L271.096746,150 L325.737239,0 L329.633331,0 Z M339.633331,0 L284.991007,150 L281.096746,150 L335.737239,0 L339.633331,0 Z M349.633331,0 L294.991007,150 L291.096746,150 L345.737239,0 L349.633331,0 Z M359.633331,0 L304.991007,150 L301.096746,150 L355.737239,0 L359.633331,0 Z M369.633331,0 L314.991007,150 L311.096746,150 L365.737239,0 L369.633331,0 Z M379.633331,0 L324.991007,150 L321.096746,150 L375.737239,0 L379.633331,0 Z M389.633331,0 L334.991007,150 L331.096746,150 L385.737239,0 L389.633331,0 Z M399.633331,0 L344.991007,150 L341.096746,150 L395.737239,0 L399.633331,0 Z M409.633331,0 L354.991007,150 L351.096746,150 L405.737239,0 L409.633331,0 Z M419.633331,0 L364.991007,150 L361.096746,150 L415.737239,0 L419.633331,0 Z M429.633331,0 L374.991007,150 L371.096746,150 L425.737239,0 L429.633331,0 Z M439.633331,0 L384.991007,150 L381.096746,150 L435.737239,0 L439.633331,0 Z M449.633331,0 L394.991007,150 L391.096746,150 L445.737239,0 L449.633331,0 Z M459.633331,0 L404.991007,150 L401.096746,150 L455.737239,0 L459.633331,0 Z M469.633331,0 L414.991007,150 L411.096746,150 L465.737239,0 L469.633331,0 Z M479.633331,0 L424.991007,150 L421.096746,150 L475.737239,0 L479.633331,0 Z M489.633331,0 L434.991007,150 L431.096746,150 L485.737239,0 L489.633331,0 Z" id="Combined-Shape" stroke="none" fill="#94CFC0" fill-rule="nonzero" mask="url(#mask-4)"></path>
            </g>
        </g>
        <g id="Group" mask="url(#mask-2)" stroke-linejoin="bevel">
            <g transform="translate(81.000000, 9.000000)" id="Crystal-symmetric-outline-only">
                <polygon id="Path" stroke="#96CFC0" stroke-width="3" points="5.25449871 18.3491021 36.592545 0.187660668 67.9305913 18.3491021 67.9305913 54.8272512 36.592545 72.6910299 5.25449871 54.8272512"></polygon>
            </g>
        </g>
        <g id="Group" mask="url(#mask-2)">
            <g transform="translate(146.000000, 71.000000)" id="Crystal-symmetric-outline-only">
                <polygon id="Path" fill="#94CFC0" fill-rule="nonzero" points="5.25449871 18.3491021 36.592545 0.187660668 67.9305913 18.3491021 67.9305913 54.8272512 36.592545 72.6910299 5.25449871 54.8272512"></polygon>
            </g>
        </g>
        <g id="Group" mask="url(#mask-2)">
            <g transform="translate(22.250000, 72.000000)" id="Crystal-symmetric-outline-only">
                <polygon id="Path" fill="#94CFC0" fill-rule="nonzero" points="2.62724936 9.17455105 18.2962725 0.0938303342 33.9652956 9.17455105 33.9652956 27.4136256 18.2962725 36.3455149 2.62724936 27.4136256"></polygon>
            </g>
        </g>
        <g id="Group" mask="url(#mask-2)" stroke-linejoin="bevel">
            <g transform="translate(376.000000, 3.000000)" id="Crystal-symmetric-outline-only">
                <polygon id="Path" stroke="#96CFC0" stroke-width="3" points="7.05398458 24.6330412 49.1242385 0.251928021 91.1944924 24.6330412 91.1944924 73.6037071 49.1242385 97.5852182 7.05398458 73.6037071"></polygon>
            </g>
        </g>
        <g id="Group" mask="url(#mask-2)">
            <g transform="translate(294.250000, 0.000000)" id="Crystal-symmetric-outline-only">
                <polygon id="Path" stroke="#96CFC0" points="10.7969152 37.7036345 75.1901609 0.385604113 139.583407 37.7036345 139.583407 112.658735 75.1901609 149.36513 10.7969152 112.658735"></polygon>
            </g>
        </g>
        <g id="Group" mask="url(#mask-2)">
            <g transform="translate(282.000000, 70.500000)">
                <mask id="mask-6" fill="white">
                    <use xlink:href="#path-5"></use>
                </mask>
                <g id="Mask" stroke="none" fill="none"></g>
                <path d="M-252.463415,-74 L-307.105739,76 L-311,76 L-256.359507,-74 L-252.463415,-74 Z M-242.098376,-74 L-296.7407,76 L-300.634961,76 L-245.994468,-74 L-242.098376,-74 Z M-232.098376,-74 L-286.7407,76 L-290.634961,76 L-235.994468,-74 L-232.098376,-74 Z M-222.098376,-74 L-276.7407,76 L-280.634961,76 L-225.994468,-74 L-222.098376,-74 Z M-212.098376,-74 L-266.7407,76 L-270.634961,76 L-215.994468,-74 L-212.098376,-74 Z M-202.098376,-74 L-256.7407,76 L-260.634961,76 L-205.994468,-74 L-202.098376,-74 Z M-192.098376,-74 L-246.7407,76 L-250.634961,76 L-195.994468,-74 L-192.098376,-74 Z M-182.098376,-74 L-236.7407,76 L-240.634961,76 L-185.994468,-74 L-182.098376,-74 Z M-172.098376,-74 L-226.7407,76 L-230.634961,76 L-175.994468,-74 L-172.098376,-74 Z M-162.098376,-74 L-216.7407,76 L-220.634961,76 L-165.994468,-74 L-162.098376,-74 Z M-152.098376,-74 L-206.7407,76 L-210.634961,76 L-155.994468,-74 L-152.098376,-74 Z M-142.098376,-74 L-196.7407,76 L-200.634961,76 L-145.994468,-74 L-142.098376,-74 Z M-132.098376,-74 L-186.7407,76 L-190.634961,76 L-135.994468,-74 L-132.098376,-74 Z M-122.098376,-74 L-176.7407,76 L-180.634961,76 L-125.994468,-74 L-122.098376,-74 Z M-112.098376,-74 L-166.7407,76 L-170.634961,76 L-115.994468,-74 L-112.098376,-74 Z M-102.098376,-74 L-156.7407,76 L-160.634961,76 L-105.994468,-74 L-102.098376,-74 Z M-92.0983761,-74 L-146.7407,76 L-150.634961,76 L-95.9944681,-74 L-92.0983761,-74 Z M-82.0983761,-74 L-136.7407,76 L-140.634961,76 L-85.9944681,-74 L-82.0983761,-74 Z M-72.0983761,-74 L-126.7407,76 L-130.634961,76 L-75.9944681,-74 L-72.0983761,-74 Z M-62.0983761,-74 L-116.7407,76 L-120.634961,76 L-65.9944681,-74 L-62.0983761,-74 Z M-52.0983761,-74 L-106.7407,76 L-110.634961,76 L-55.9944681,-74 L-52.0983761,-74 Z M-42.0983761,-74 L-96.7407003,76 L-100.634961,76 L-45.9944681,-74 L-42.0983761,-74 Z M-32.0983761,-74 L-86.7407003,76 L-90.6349614,76 L-35.9944681,-74 L-32.0983761,-74 Z M-22.0983761,-74 L-76.7407003,76 L-80.6349614,76 L-25.9944681,-74 L-22.0983761,-74 Z M-12.0983761,-74 L-66.7407003,76 L-70.6349614,76 L-15.9944681,-74 L-12.0983761,-74 Z M-2.09837607,-74 L-56.7407003,76 L-60.6349614,76 L-5.99446808,-74 L-2.09837607,-74 Z M7.90162393,-74 L-46.7407003,76 L-50.6349614,76 L4.00553192,-74 L7.90162393,-74 Z M17.9016239,-74 L-36.7407003,76 L-40.6349614,76 L14.0055319,-74 L17.9016239,-74 Z M27.9016239,-74 L-26.7407003,76 L-30.6349614,76 L24.0055319,-74 L27.9016239,-74 Z M37.9016239,-74 L-16.7407003,76 L-20.6349614,76 L34.0055319,-74 L37.9016239,-74 Z M47.9016239,-74 L-6.7407003,76 L-10.6349614,76 L44.0055319,-74 L47.9016239,-74 Z M57.9016239,-74 L3.2592997,76 L-0.63496144,76 L54.0055319,-74 L57.9016239,-74 Z M67.9016239,-74 L13.2592997,76 L9.36503856,76 L64.0055319,-74 L67.9016239,-74 Z M77.9016239,-74 L23.2592997,76 L19.3650386,76 L74.0055319,-74 L77.9016239,-74 Z M87.9016239,-74 L33.2592997,76 L29.3650386,76 L84.0055319,-74 L87.9016239,-74 Z M97.9016239,-74 L43.2592997,76 L39.3650386,76 L94.0055319,-74 L97.9016239,-74 Z M107.901624,-74 L53.2592997,76 L49.3650386,76 L104.005532,-74 L107.901624,-74 Z M117.901624,-74 L63.2592997,76 L59.3650386,76 L114.005532,-74 L117.901624,-74 Z M127.901624,-74 L73.2592997,76 L69.3650386,76 L124.005532,-74 L127.901624,-74 Z M137.901624,-74 L83.2592997,76 L79.3650386,76 L134.005532,-74 L137.901624,-74 Z M147.901624,-74 L93.2592997,76 L89.3650386,76 L144.005532,-74 L147.901624,-74 Z M157.901624,-74 L103.2593,76 L99.3650386,76 L154.005532,-74 L157.901624,-74 Z M167.901624,-74 L113.2593,76 L109.365039,76 L164.005532,-74 L167.901624,-74 Z M177.901624,-74 L123.2593,76 L119.365039,76 L174.005532,-74 L177.901624,-74 Z M187.901624,-74 L133.2593,76 L129.365039,76 L184.005532,-74 L187.901624,-74 Z M197.901624,-74 L143.2593,76 L139.365039,76 L194.005532,-74 L197.901624,-74 Z M207.901624,-74 L153.2593,76 L149.365039,76 L204.005532,-74 L207.901624,-74 Z M217.901624,-74 L163.2593,76 L159.365039,76 L214.005532,-74 L217.901624,-74 Z" id="Shape" stroke="none" fill="#94CFC0" fill-rule="nonzero" mask="url(#mask-6)"></path>
            </g>
        </g>
        <circle id="Oval" stroke="#96CFC0" stroke-width="3" stroke-linejoin="bevel" mask="url(#mask-2)" cx="247.5" cy="45.5" r="29.5"></circle>
        <circle id="Oval" fill="#94CFC0" fill-rule="nonzero" mask="url(#mask-2)" cx="466" cy="34.5" r="15"></circle>
        <circle id="Oval" stroke="#96CFC0" mask="url(#mask-2)" cx="466" cy="74.5" r="15"></circle>
        <circle id="Oval" stroke="#96CFC0" mask="url(#mask-2)" cx="466" cy="115.5" r="15"></circle>
    </g>
</svg>
