<?xml version="1.0" encoding="UTF-8"?>
<svg viewBox="0 0 188 201" version="1.1" xmlns="http://www.w3.org/2000/svg" xmlns:xlink="http://www.w3.org/1999/xlink">
    <title>ng-cologne</title>
    <g id="Page-1" stroke="none" stroke-width="1" fill="none" fill-rule="evenodd">
        <g id="Artboard">
            <g id="Group">
                <polygon id="Shape-Copy-2" fill="#DD0031" fill-rule="nonzero" points="94 0.891594553 94 0.891594553 94 0.891594553 0.9 34.0915946 15.1 157.191595 94 200.891595 94 200.891595 94 200.891595 172.9 157.191595 187.1 34.0915946"></polygon>
                <polygon id="Shape-Copy-3" fill="#C3002F" fill-rule="nonzero" points="94 0.891594553 94 23.0915946 94 22.9915946 94 124.291595 94 124.291595 94 200.891595 94 200.891595 172.9 157.191595 187.1 34.0915946"></polygon>
                <path d="M63.763681,165.397155 L49.2501514,165.595479 L53.1040949,127.646398 L55.9736549,127.643984 L57.9215242,86.6575279 L60.8141815,86.8836212 L60.7613877,69.2821348 L63.61225,69.3714457 L72.872053,19.8473513 L81.7919963,69.2185712 L85.5645493,69.3996068 L85.5370526,86.5472973 L88.0073599,86.5472973 L89.3107055,98.7249576 L94.2062256,96.8550612 L99.6296831,98.8979472 L100.342138,87.0525878 L102.755513,87.0525878 L102.769811,70.2492671 L106.680948,70.0666224 L114.645104,20.6068961 L124.249166,69.5597227 L127.265009,69.4792625 L128.27469,86.1023521 L131.088156,86.1023521 L133.752041,126.624553 L136.656797,126.624553 L138.749849,164.372484 L125.028155,164.559988 L125.028155,136.801823 L102.763681,136.801823 L102.763681,164.864228 L86.0281554,165.092915 L86.0281554,136.801823 L63.763681,136.801823 L63.763681,165.397155 Z M102.763681,130.923583 L125.028155,130.923583 C125.028155,130.923583 125.028155,142.452892 125.028155,127.43104 C125.028155,117.602282 116.027374,106.544183 113.869686,106.544183 C111.711997,106.544183 102.763681,117.602282 102.763681,127.43104 C102.763681,144.128837 102.763681,130.923583 102.763681,130.923583 Z M63.763681,130.923583 L86.0281554,130.923583 C86.0281554,130.923583 86.0281554,142.452892 86.0281554,127.43104 C86.0281554,117.602282 77.0273739,106.544183 74.8696856,106.544183 C72.7119973,106.544183 63.763681,117.602282 63.763681,127.43104 C63.763681,144.128837 63.763681,130.923583 63.763681,130.923583 Z" id="Combined-Shape" fill="#FFFFFF"></path>
            </g>
        </g>
    </g>
</svg>
