<svg width="1300px" height="610px" viewBox="0 0 1300 610" version="1.1" xmlns="http://www.w3.org/2000/svg" xmlns:xlink="http://www.w3.org/1999/xlink">
    <g id="what-we-do" stroke="none" stroke-width="1" fill="none" fill-rule="evenodd">
        <g id="Desktop-HD-Copy" transform="translate(-660.000000, -290.000000)">
            <g id="bif_what-we-do" transform="translate(552.000000, 279.000000)">
                <g id="Define" transform="translate(628.000000, 0.000000)">
                    <text id="Concept-Process-Opti" class="section-links" font-style="expanded" font-weight="500" line-spacing="36" fill="#000000">
                        <tspan x="205" y="18">Concept</tspan>
                        <tspan x="205" y="54">Process Optimization</tspan>
                        <tspan x="205" y="90">Wireframing</tspan>
                        <tspan x="205" y="126">UI/UX Design</tspan>
                        <tspan x="205" y="162">Prototyping</tspan>
                        <tspan x="205" y="198">Design Systems</tspan>
                    </text>
                    <g id="Group-2" transform="translate(97.500000, 147.500000) scale(-1, -1) translate(-97.500000, -147.500000) translate(0.000000, 11.000000)">
                        <g id="Path-3">
                            <circle id="Oval" fill="#662A8F" cx="8" cy="84.9137588" r="8"></circle>
                            <polyline id="Path-2" stroke="#662A8F" points="16 84.9137588 37.5155604 84.9137588 122.429319 0"></polyline>
                        </g>
                        <g id="Path-3" transform="translate(0.000000, 36.000000)">
                            <circle id="Oval" fill="#662A8F" cx="8" cy="84.9137588" r="8"></circle>
                            <polyline id="Path-2" stroke="#662A8F" points="16 84.9137588 37.5155604 84.9137588 122.429319 0"></polyline>
                        </g>
                        <g id="Path-3" transform="translate(0.000000, 72.003759)">
                            <circle id="Oval" fill="#662A8F" cx="8" cy="84.9137588" r="8"></circle>
                            <polyline id="Path-2" stroke="#662A8F" points="16 84.9137588 37.5155604 84.9137588 122.429319 0"></polyline>
                        </g>
                        <g id="Path-3" transform="translate(0.000000, 108.003759)">
                            <circle id="Oval" fill="#662A8F" cx="8" cy="84.9137588" r="8"></circle>
                            <polyline id="Path-2" stroke="#662A8F" points="16 84.9137588 37.5155604 84.9137588 122.429319 0"></polyline>
                        </g>
                        <g id="Path-3" transform="translate(0.000000, 144.003759)">
                            <circle id="Oval" fill="#662A8F" cx="8" cy="84.9137588" r="8"></circle>
                            <polyline id="Path-2" stroke="#662A8F" points="16 84.9137588 37.5155604 84.9137588 122.429319 0"></polyline>
                        </g>
                        <g id="Path-3" transform="translate(0.000000, 107.000000)">
                            <circle id="Oval" fill="#662A8F" cx="8" cy="157.913759" r="8"></circle>
                            <polyline id="Path-2" stroke="#662A8F" points="16 157.913759 37.5155604 157.913759 195 2.84217094e-14"></polyline>
                        </g>
                    </g>
                </g>
                <g id="Develop" transform="translate(271.000000, 343.000000)">
                    <text id="Microservices-Single" class="section-links" font-style="expanded" font-weight="500" line-spacing="36" fill="#000000">
                        <tspan x="210.308" y="84">Microservices</tspan>
                        <tspan x="114.584" y="120">Single Page Applications</tspan>
                        <tspan x="188.474" y="156">Micro Frontends</tspan>
                        <tspan x="205.268" y="192">Enterprise CSS</tspan>
                        <tspan x="184.748" y="228">Test Automation</tspan>
                    </text>
                    <g id="Group-2" transform="translate(337.000000, 0.000000)">
                        <g id="Path-3">
                            <circle id="Oval" fill="#EB0089" cx="8" cy="84.9137588" r="8"></circle>
                            <polyline id="Path-2" stroke="#EB0089" points="16 84.9137588 37.5155604 84.9137588 122.429319 0"></polyline>
                        </g>
                        <g id="Path-3" transform="translate(0.000000, 36.003759)">
                            <circle id="Oval" fill="#EB0089" cx="8" cy="84.9137588" r="8"></circle>
                            <polyline id="Path-2" stroke="#EB0089" points="16 84.9137588 37.5155604 84.9137588 122.429319 0"></polyline>
                        </g>
                        <g id="Path-3" transform="translate(0.000000, 72.003759)">
                            <circle id="Oval" fill="#EB0089" cx="8" cy="84.9137588" r="8"></circle>
                            <polyline id="Path-2" stroke="#EB0089" points="16 84.9137588 37.5155604 84.9137588 122.429319 0"></polyline>
                        </g>
                        <g id="Path-3" transform="translate(0.000000, 108.003759)">
                            <circle id="Oval" fill="#EB0089" cx="8" cy="84.9137588" r="8"></circle>
                            <polyline id="Path-2" stroke="#EB0089" points="16 84.9137588 37.5155604 84.9137588 122.429319 0"></polyline>
                        </g>
                        <g id="Path-3" transform="translate(0.000000, 71.000000)">
                            <circle id="Oval" fill="#EB0089" cx="8" cy="157.913759" r="8"></circle>
                            <polyline id="Path-2" stroke="#EB0089" points="16 157.913759 37.5155604 157.913759 195 2.84217094e-14"></polyline>
                        </g>
                    </g>
                </g>
                <g id="Understand" transform="translate(0.000000, 211.086241)">
                    <g id="Group-2" transform="translate(338.000000, 0.000000)">
                        <g id="Path-3">
                            <circle id="Oval" fill="#00A649" cx="8" cy="84.9137588" r="8"></circle>
                            <polyline id="Path-2" stroke="#00A649" points="16 84.9137588 37.5155604 84.9137588 122.429319 0"></polyline>
                        </g>
                        <g id="Path-3" transform="translate(0.000000, 36.003759)">
                            <circle id="Oval" fill="#00A649" cx="8" cy="84.9137588" r="8"></circle>
                            <polyline id="Path-2" stroke="#00A649" points="16 84.9137588 37.5155604 84.9137588 122.429319 0"></polyline>
                        </g>
                        <g id="Path-3" transform="translate(0.000000, 72.003759)">
                            <circle id="Oval" fill="#00A649" cx="8" cy="84.9137588" r="8"></circle>
                            <polyline id="Path-2" stroke="#00A649" points="16 84.9137588 37.5155604 84.9137588 122.429319 0"></polyline>
                        </g>
                        <g id="Path-3" transform="translate(0.000000, 108.003759)">
                            <circle id="Oval" fill="#00A649" cx="8" cy="84.9137588" r="8"></circle>
                            <polyline id="Path-2" stroke="#00A649" points="16 84.9137588 37.5155604 84.9137588 122.429319 0"></polyline>
                        </g>
                    </g>
                    <text id="User-Research-Proces" class="section-links" font-style="expanded" font-weight="500" line-spacing="36" fill="#000000">
                        <tspan x="206.15" y="83.9137588">User Research</tspan>
                        <tspan x="185.774" y="119.913759">Process Analysis</tspan>
                        <tspan x="107.834" y="155.913759">Stakeholder Engagement</tspan>
                        <tspan x="202.298" y="191.913759">Benchmarking</tspan>
                    </text>
                </g>
                <g id="Continuous-Delivery" transform="translate(1025.000000, 378.000000)">
                    <text class="section-links" font-style="expanded" font-weight="500" line-spacing="36" fill="#000000">
                        <tspan x="194" y="84">Continuous Delivery</tspan>
                        <tspan x="194" y="120">Containerization</tspan>
                        <tspan x="194" y="156">Cloud Deployments</tspan>
                        <tspan x="194" y="192">On-Premise Solutions</tspan>
                        <tspan x="194" y="228">Dev Ops</tspan>
                    </text>
                    <g id="Group-2" transform="translate(92.500000, 118.000000) scale(-1, 1) translate(-92.500000, -118.000000) ">
                        <g id="Path-3">
                            <circle id="Oval" fill="#02AAE0" cx="8" cy="84.9137588" r="8"></circle>
                            <polyline id="Path-2" stroke="#02AAE0" points="6 84.9137588 27.5155604 84.9137588 112.429319 0"></polyline>
                        </g>
                        <g id="Path-3" transform="translate(0.000000, 36.003759)">
                            <circle id="Oval" fill="#02AAE0" cx="8" cy="84.9137588" r="8"></circle>
                            <polyline id="Path-2" stroke="#02AAE0" points="6 84.9137588 27.5155604 84.9137588 112.429319 0"></polyline>
                        </g>
                        <g id="Path-3" transform="translate(0.000000, 72.003759)">
                            <circle id="Oval" fill="#02AAE0" cx="8" cy="84.9137588" r="8"></circle>
                            <polyline id="Path-2" stroke="#02AAE0" points="6 84.9137588 27.5155604 84.9137588 112.429319 0"></polyline>
                        </g>
                        <g id="Path-3" transform="translate(0.000000, 107.003759)">
                            <circle id="Oval" fill="#02AAE0" cx="8" cy="84.9137588" r="8"></circle>
                            <polyline id="Path-2" stroke="#02AAE0" points="6 84.9137588 27.5155604 84.9137588 112.429319 0"></polyline>
                        </g>
                        <g id="Path-3" transform="translate(0.000000, 70.000000)">
                            <circle id="Oval" fill="#02AAE0" cx="8" cy="157.913759" r="8"></circle>
                            <polyline id="Path-2" stroke="#02AAE0" points="6 157.913759 27.5155604 157.913759 185 0"></polyline>
                        </g>
                    </g>
                </g>
                <circle id="Oval" fill="#EB008A" cx="832" cy="387" r="167"></circle>
                <circle id="Oval" fill="#662A8F" cx="659" cy="249" r="120"></circle>
                <g id="Oval" transform="translate(932.000000, 346.000000)">
                    <circle fill="#02AAE0" cx="118.5" cy="118.5" r="118.5"></circle>
                    <text id="Business-Value" class="section-headline" font-style="expanded" font-weight="500" fill="#FFFFFF">
                        <tspan x="67.68" y="130">INTEGRATE</tspan>
                    </text>
                </g>
                <g id="Oval" transform="translate(386.000000, 168.000000)">
                    <circle fill="#00A648" cx="97.5" cy="97.5" r="97.5"></circle>
                    <text id="Understand" class="section-headline" font-style="expanded" font-weight="500" fill="#FFFFFF">
                        <tspan x="32.8691406" y="108.046875">UNDERSTAND</tspan>
                    </text>
                </g>
                <g id="Oval" transform="translate(539.000000, 129.000000)">
                    <circle fill="#662A8F" style="mix-blend-mode: darken;" opacity="0.849999964" cx="120" cy="120" r="120"></circle>
                    <text id="Business-Value" class="section-headline" font-style="expanded" font-weight="500" fill="#FFFFFF">
                        <tspan x="80.50725" y="131.75">DEFINE</tspan>
                    </text>
                </g>
                <g id="Oval" transform="translate(665.000000, 220.000000)">
                    <circle fill="#EB008A" opacity="0.900000036" cx="167" cy="167" r="167"></circle>
                    <text id="Business-Value" class="section-headline" font-style="expanded" font-weight="500" fill="#FFFFFF">
                        <tspan x="95.2876562" y="180.21875">DEVELOP</tspan>
                    </text>
                </g>
            </g>
        </g>
    </g>
</svg>
