<svg width="239px" height="88px" viewBox="0 0 239 88" version="1.1" xmlns="http://www.w3.org/2000/svg">
    <g id="Symbols" stroke="none" stroke-width="1" fill="none" fill-rule="evenodd">
        <g id="bif_logo" fill="#000000" fill-rule="nonzero">
            <path d="M122.009539,62.1436563 L120.546073,62.1436563 L120.546073,47.4651738 L122.009539,47.4651738 L122.009539,62.1436563 Z M122.334754,43.3802529 C122.334754,43.9793747 121.874033,44.4423324 121.277806,44.4423324 C120.68158,44.4423324 120.220859,43.9793747 120.220859,43.3802529 C120.220859,42.7811312 120.68158,42.3181735 121.277806,42.3181735 C121.874033,42.3181735 122.334754,42.7811312 122.334754,43.3802529 Z M137.863751,62.1436563 L136.400285,62.1436563 L136.400285,52.4760101 C136.400285,49.4259359 134.665807,48.145994 131.630471,48.145994 C130.383815,48.145994 128.947451,48.3638564 127.863402,48.7723485 L127.863402,62.1436563 L126.399936,62.1436563 L126.399936,48.1732268 C127.917604,47.4924066 129.841791,47.1383802 131.630471,47.1383802 C135.424641,47.1383802 137.863751,48.6634173 137.863751,52.4760101 L137.863751,62.1436563 Z M148.135112,62.2798203 C147.891201,62.3615187 147.43048,62.4159843 147.051063,62.4159843 C144.124132,62.4159843 143.20269,60.4824551 143.20269,58.9029524 L143.20269,48.3638564 L140.763581,48.3638564 L140.763581,47.4651738 L143.20269,47.4651738 L143.20269,43.9521418 L144.666156,43.4074857 L144.666156,47.4651738 L148.135112,47.4651738 L148.135112,48.3638564 L144.666156,48.3638564 L144.666156,58.9846508 C144.666156,60.1828942 145.587597,61.3811377 147.43048,61.3811377 C147.64729,61.3811377 147.918302,61.3811377 148.135112,61.3266721 L148.135112,62.2798203 Z M163.311793,54.0827457 L151.87508,55.5260844 C152.146092,59.3659101 154.476796,61.3539049 157.918651,61.3539049 C159.436319,61.3539049 160.981088,61.054344 162.173542,60.4824551 L162.688465,61.4628361 C161.387606,62.1164235 159.653129,62.47045 157.89155,62.47045 C153.690861,62.47045 150.492918,60.1556614 150.492918,54.7635658 C150.492918,49.5893327 153.44695,47.1383802 157.105614,47.1383802 C160.818481,47.1383802 163.311793,49.2080734 163.311793,54.0827457 Z M161.821226,53.3202271 C161.821226,49.6165655 159.842837,48.145994 157.051412,48.145994 C154.259987,48.145994 151.87508,50.106756 151.87508,54.5729362 L161.821226,53.3202271 Z M173.772862,47.165613 L173.28504,48.3910892 C172.715915,48.282158 172.011283,48.2004596 171.333753,48.2004596 C170.168401,48.2004596 169.003048,48.3638564 168.352619,48.7723485 L168.352619,62.1436563 L166.889153,62.1436563 L166.889153,48.1187612 C168.569429,47.4651738 170.059996,47.1383802 172.932725,47.1383802 C173.122433,47.1383802 173.393445,47.1383802 173.772862,47.165613 Z M182.716264,48.3638564 L179.247308,48.3638564 L179.247308,62.1436563 L177.783842,62.1436563 L177.783842,48.3638564 L175.344733,48.3638564 L175.344733,47.4651738 L177.783842,47.4651738 L177.783842,45.1231525 C177.783842,42.6722 179.247308,40.7659035 182.445252,40.7659035 L182.716264,40.7659035 L182.716264,41.6918189 L182.499454,41.6918189 C180.873381,41.6918189 179.247308,42.6994328 179.247308,44.8780573 L179.247308,47.4651738 L182.716264,47.4651738 L182.716264,48.3638564 Z M195.751949,61.4900689 C194.505293,62.0891907 192.581106,62.47045 190.629819,62.47045 C187.07956,62.47045 184.477843,61.2449737 184.477843,58.2765978 C184.477843,54.2189097 188.895341,53.1295975 194.342686,52.639407 L194.342686,51.659026 C194.342686,49.1536078 192.797916,48.2004596 190.141997,48.2004596 C188.678531,48.2004596 187.106661,48.5272533 185.914207,49.0719094 L185.507689,48.1187612 C186.835649,47.4924066 188.543025,47.1383802 190.141997,47.1383802 C193.55675,47.1383802 195.751949,48.4727877 195.751949,51.6862588 L195.751949,61.4900689 Z M194.342686,60.8637144 L194.342686,53.5380896 C189.274758,54.1099785 185.941308,54.8724971 185.941308,58.2765978 C185.941308,60.4824551 187.811292,61.4900689 190.629819,61.4900689 C191.98488,61.4900689 193.367042,61.2722065 194.342686,60.8637144 Z M209.681974,61.4900689 C208.679229,62.1436563 207.351269,62.47045 205.887804,62.47045 C201.605811,62.47045 199.329309,59.0663492 199.329309,54.8180315 C199.329309,50.5697137 201.605811,47.1383802 205.887804,47.1383802 C207.351269,47.1383802 208.679229,47.4651738 209.681974,48.1187612 L209.194152,49.0719094 C208.326913,48.5000205 207.161561,48.2004596 205.887804,48.2004596 C202.418848,48.2004596 200.819876,51.2777667 200.819876,54.7635658 C200.819876,58.249365 202.418848,61.3539049 205.887804,61.3539049 C207.161561,61.3539049 208.299812,61.0815768 209.167051,60.5096879 L209.681974,61.4900689 Z M224.668947,54.0827457 L213.232233,55.5260844 C213.503245,59.3659101 215.83395,61.3539049 219.275805,61.3539049 C220.793473,61.3539049 222.338242,61.054344 223.530695,60.4824551 L224.045619,61.4628361 C222.74476,62.1164235 221.010282,62.47045 219.248703,62.47045 C215.048015,62.47045 211.850071,60.1556614 211.850071,54.7635658 C211.850071,49.5893327 214.804104,47.1383802 218.462768,47.1383802 C222.175635,47.1383802 224.668947,49.2080734 224.668947,54.0827457 Z M223.17838,53.3202271 C223.17838,49.6165655 221.199991,48.145994 218.408566,48.145994 C215.61714,48.145994 213.232233,50.106756 213.232233,54.5729362 L223.17838,53.3202271 Z M237,58.2221322 C237,60.7547832 234.7777,62.47045 231.579757,62.47045 C230.116291,62.47045 228.517319,62.1436563 227.243562,61.4900689 L227.758485,60.5096879 C228.842534,61.054344 230.251797,61.3539049 231.579757,61.3539049 C234.073069,61.3539049 235.509433,60.1828942 235.509433,58.3038306 C235.509433,54.4095394 227.595878,55.7439469 227.595878,51.087137 C227.595878,48.6906501 229.709773,47.1383802 232.582502,47.1383802 C234.018866,47.1383802 235.373927,47.4651738 236.539279,48.1187612 L236.024356,49.0446766 C235.075814,48.5272533 233.802056,48.2004596 232.582502,48.2004596 C230.495708,48.2004596 229.059344,49.2353062 229.059344,51.0054386 C229.059344,54.7091002 237,53.3746927 237,58.2221322 Z M13.9288242,37.395911 C13.9288242,41.9596536 11.4515063,45.3137295 6.60458,45.3137295 C4.96201053,45.3137295 3.18480421,44.956328 2,44.3240022 L2,23.4022664 L3.42715053,23.4022664 L3.42715053,30.6052819 C4.50424526,30.1104182 5.85061368,29.835494 7.14312737,29.835494 C11.3168695,29.835494 13.9288242,32.7221986 13.9288242,37.395911 Z M12.4747463,37.395911 C12.4747463,33.4919866 10.5359758,30.8527137 7.00849053,30.8527137 C5.66212211,30.8527137 4.45039053,31.0726531 3.42715053,31.5400243 L3.42715053,43.7191688 C4.39653579,44.1040628 5.47363053,44.2690173 6.55072526,44.2690173 C10.6167579,44.2690173 12.4747463,41.3273278 12.4747463,37.395911 Z M29.62748,36.8460625 L18.2641305,38.303161 C18.5334042,42.179593 20.8491579,44.1865401 24.2689337,44.1865401 C25.7768663,44.1865401 27.3117263,43.8841234 28.4965305,43.3067824 L29.0081505,44.2965098 C27.7156368,44.956328 25.9922853,45.3137295 24.2420063,45.3137295 C20.0682642,45.3137295 16.8908347,42.9768733 16.8908347,37.5333731 C16.8908347,32.3098123 19.8259179,29.835494 23.4611126,29.835494 C27.1501621,29.835494 29.62748,31.9249183 29.62748,36.8460625 Z M28.1464747,36.0762745 C28.1464747,32.3373047 26.1807768,30.8527137 23.4072579,30.8527137 C20.633739,30.8527137 18.2641305,32.8321683 18.2641305,37.3409261 L28.1464747,36.0762745 Z M44.6260242,30.1654031 L36.5208863,50.8946919 L34.8244621,50.8946919 L37.6787632,44.9838204 L31.8085968,30.1654031 L33.4511663,30.1654031 L37.7056905,41.8496839 C37.9480368,42.564487 38.1903832,43.3067824 38.2980926,43.7191688 L38.3519474,43.7191688 C38.4596568,43.3617673 38.5942937,42.7569339 38.9443495,41.8496839 L43.2796558,30.1654031 L44.6260242,30.1654031 Z M59.516859,37.5608655 C59.516859,41.9046687 57.3357421,45.3137295 53.0812179,45.3137295 C48.8266937,45.3137295 46.6455768,41.9046687 46.6455768,37.5608655 C46.6455768,33.2170623 48.8266937,29.835494 53.0812179,29.835494 C57.3357421,29.835494 59.516859,33.2170623 59.516859,37.5608655 Z M58.0627811,37.5333731 C58.0627811,33.9593578 56.5817758,30.8802061 53.0812179,30.8802061 C49.58066,30.8802061 48.0996547,33.9593578 48.0996547,37.5333731 C48.0996547,41.1073884 49.58066,44.2140325 53.0812179,44.2140325 C56.5817758,44.2140325 58.0627811,41.1073884 58.0627811,37.5333731 Z M74.4615484,44.9838204 L73.0074705,44.9838204 L73.0074705,35.2240094 C73.0074705,32.1448577 71.284119,30.8527137 68.2682537,30.8527137 C67.0295947,30.8527137 65.6024442,31.0726531 64.5253495,31.4850395 L64.5253495,44.9838204 L63.0712716,44.9838204 L63.0712716,30.8802061 C64.5792042,30.1928955 66.4910474,29.835494 68.2682537,29.835494 C72.0380853,29.835494 74.4615484,31.3750698 74.4615484,35.2240094 L74.4615484,44.9838204 Z M89.9447853,44.3240022 C88.7869084,44.956328 86.92892,45.3137295 85.1786411,45.3137295 C80.3586421,45.3137295 78.0159611,42.2620703 78.0159611,37.6983276 C78.0159611,32.9696305 80.8433347,29.8904788 85.4748421,29.8904788 C86.5788642,29.8904788 87.655959,30.0554334 88.5176347,30.2753728 L88.5176347,23.4022664 L89.9447853,23.4022664 L89.9447853,44.3240022 Z M88.5176347,43.6916764 L88.5176347,31.2376077 C87.7098137,31.0451607 86.6865737,30.9076986 85.6902611,30.9076986 C81.3818821,30.9076986 79.470039,33.711926 79.470039,37.6983276 C79.470039,41.5197748 81.1664632,44.2690173 85.3132779,44.2690173 C86.4711547,44.2690173 87.6290316,44.0765704 88.5176347,43.6916764 Z M100.368142,2.17634125 L101.804327,2 L112.059221,85.5194096 L110.623036,85.6957509 L100.368142,2.17634125 Z" id="Combined-Shape"></path>
        </g>
    </g>
</svg>
