<?xml version="1.0" encoding="UTF-8"?>
<svg width="525px" height="84px" viewBox="0 0 525 84" version="1.1" xmlns="http://www.w3.org/2000/svg" xmlns:xlink="http://www.w3.org/1999/xlink">
    <!-- Generator: Sketch 54 (76480) - https://sketchapp.com -->
    <title>bif_logo-w-claim</title>
    <desc>Created with Sketch.</desc>
    <g id="Symbols" stroke="none" stroke-width="1" fill="none" fill-rule="evenodd">
        <g id="bif_logo-w-claim">
            <g id="bif_logo" fill="#000000" fill-rule="nonzero">
                <path d="M120.009539,60.1436563 L118.546073,60.1436563 L118.546073,45.4651738 L120.009539,45.4651738 L120.009539,60.1436563 Z M120.334754,41.3802529 C120.334754,41.9793747 119.874033,42.4423324 119.277806,42.4423324 C118.68158,42.4423324 118.220859,41.9793747 118.220859,41.3802529 C118.220859,40.7811312 118.68158,40.3181735 119.277806,40.3181735 C119.874033,40.3181735 120.334754,40.7811312 120.334754,41.3802529 Z M135.863751,60.1436563 L134.400285,60.1436563 L134.400285,50.4760101 C134.400285,47.4259359 132.665807,46.145994 129.630471,46.145994 C128.383815,46.145994 126.947451,46.3638564 125.863402,46.7723485 L125.863402,60.1436563 L124.399936,60.1436563 L124.399936,46.1732268 C125.917604,45.4924066 127.841791,45.1383802 129.630471,45.1383802 C133.424641,45.1383802 135.863751,46.6634173 135.863751,50.4760101 L135.863751,60.1436563 Z M146.135112,60.2798203 C145.891201,60.3615187 145.43048,60.4159843 145.051063,60.4159843 C142.124132,60.4159843 141.20269,58.4824551 141.20269,56.9029524 L141.20269,46.3638564 L138.763581,46.3638564 L138.763581,45.4651738 L141.20269,45.4651738 L141.20269,41.9521418 L142.666156,41.4074857 L142.666156,45.4651738 L146.135112,45.4651738 L146.135112,46.3638564 L142.666156,46.3638564 L142.666156,56.9846508 C142.666156,58.1828942 143.587597,59.3811377 145.43048,59.3811377 C145.64729,59.3811377 145.918302,59.3811377 146.135112,59.3266721 L146.135112,60.2798203 Z M161.311793,52.0827457 L149.87508,53.5260844 C150.146092,57.3659101 152.476796,59.3539049 155.918651,59.3539049 C157.436319,59.3539049 158.981088,59.054344 160.173542,58.4824551 L160.688465,59.4628361 C159.387606,60.1164235 157.653129,60.47045 155.89155,60.47045 C151.690861,60.47045 148.492918,58.1556614 148.492918,52.7635658 C148.492918,47.5893327 151.44695,45.1383802 155.105614,45.1383802 C158.818481,45.1383802 161.311793,47.2080734 161.311793,52.0827457 Z M159.821226,51.3202271 C159.821226,47.6165655 157.842837,46.145994 155.051412,46.145994 C152.259987,46.145994 149.87508,48.106756 149.87508,52.5729362 L159.821226,51.3202271 Z M171.772862,45.165613 L171.28504,46.3910892 C170.715915,46.282158 170.011283,46.2004596 169.333753,46.2004596 C168.168401,46.2004596 167.003048,46.3638564 166.352619,46.7723485 L166.352619,60.1436563 L164.889153,60.1436563 L164.889153,46.1187612 C166.569429,45.4651738 168.059996,45.1383802 170.932725,45.1383802 C171.122433,45.1383802 171.393445,45.1383802 171.772862,45.165613 Z M180.716264,46.3638564 L177.247308,46.3638564 L177.247308,60.1436563 L175.783842,60.1436563 L175.783842,46.3638564 L173.344733,46.3638564 L173.344733,45.4651738 L175.783842,45.4651738 L175.783842,43.1231525 C175.783842,40.6722 177.247308,38.7659035 180.445252,38.7659035 L180.716264,38.7659035 L180.716264,39.6918189 L180.499454,39.6918189 C178.873381,39.6918189 177.247308,40.6994328 177.247308,42.8780573 L177.247308,45.4651738 L180.716264,45.4651738 L180.716264,46.3638564 Z M193.751949,59.4900689 C192.505293,60.0891907 190.581106,60.47045 188.629819,60.47045 C185.07956,60.47045 182.477843,59.2449737 182.477843,56.2765978 C182.477843,52.2189097 186.895341,51.1295975 192.342686,50.639407 L192.342686,49.659026 C192.342686,47.1536078 190.797916,46.2004596 188.141997,46.2004596 C186.678531,46.2004596 185.106661,46.5272533 183.914207,47.0719094 L183.507689,46.1187612 C184.835649,45.4924066 186.543025,45.1383802 188.141997,45.1383802 C191.55675,45.1383802 193.751949,46.4727877 193.751949,49.6862588 L193.751949,59.4900689 Z M192.342686,58.8637144 L192.342686,51.5380896 C187.274758,52.1099785 183.941308,52.8724971 183.941308,56.2765978 C183.941308,58.4824551 185.811292,59.4900689 188.629819,59.4900689 C189.98488,59.4900689 191.367042,59.2722065 192.342686,58.8637144 Z M207.681974,59.4900689 C206.679229,60.1436563 205.351269,60.47045 203.887804,60.47045 C199.605811,60.47045 197.329309,57.0663492 197.329309,52.8180315 C197.329309,48.5697137 199.605811,45.1383802 203.887804,45.1383802 C205.351269,45.1383802 206.679229,45.4651738 207.681974,46.1187612 L207.194152,47.0719094 C206.326913,46.5000205 205.161561,46.2004596 203.887804,46.2004596 C200.418848,46.2004596 198.819876,49.2777667 198.819876,52.7635658 C198.819876,56.249365 200.418848,59.3539049 203.887804,59.3539049 C205.161561,59.3539049 206.299812,59.0815768 207.167051,58.5096879 L207.681974,59.4900689 Z M222.668947,52.0827457 L211.232233,53.5260844 C211.503245,57.3659101 213.83395,59.3539049 217.275805,59.3539049 C218.793473,59.3539049 220.338242,59.054344 221.530695,58.4824551 L222.045619,59.4628361 C220.74476,60.1164235 219.010282,60.47045 217.248703,60.47045 C213.048015,60.47045 209.850071,58.1556614 209.850071,52.7635658 C209.850071,47.5893327 212.804104,45.1383802 216.462768,45.1383802 C220.175635,45.1383802 222.668947,47.2080734 222.668947,52.0827457 Z M221.17838,51.3202271 C221.17838,47.6165655 219.199991,46.145994 216.408566,46.145994 C213.61714,46.145994 211.232233,48.106756 211.232233,52.5729362 L221.17838,51.3202271 Z M235,56.2221322 C235,58.7547832 232.7777,60.47045 229.579757,60.47045 C228.116291,60.47045 226.517319,60.1436563 225.243562,59.4900689 L225.758485,58.5096879 C226.842534,59.054344 228.251797,59.3539049 229.579757,59.3539049 C232.073069,59.3539049 233.509433,58.1828942 233.509433,56.3038306 C233.509433,52.4095394 225.595878,53.7439469 225.595878,49.087137 C225.595878,46.6906501 227.709773,45.1383802 230.582502,45.1383802 C232.018866,45.1383802 233.373927,45.4651738 234.539279,46.1187612 L234.024356,47.0446766 C233.075814,46.5272533 231.802056,46.2004596 230.582502,46.2004596 C228.495708,46.2004596 227.059344,47.2353062 227.059344,49.0054386 C227.059344,52.7091002 235,51.3746927 235,56.2221322 Z M11.9288242,35.395911 C11.9288242,39.9596536 9.45150632,43.3137295 4.60458,43.3137295 C2.96201053,43.3137295 1.18480421,42.956328 0,42.3240022 L0,21.4022664 L1.42715053,21.4022664 L1.42715053,28.6052819 C2.50424526,28.1104182 3.85061368,27.835494 5.14312737,27.835494 C9.31686948,27.835494 11.9288242,30.7221986 11.9288242,35.395911 Z M10.4747463,35.395911 C10.4747463,31.4919866 8.53597579,28.8527137 5.00849053,28.8527137 C3.66212211,28.8527137 2.45039053,29.0726531 1.42715053,29.5400243 L1.42715053,41.7191688 C2.39653579,42.1040628 3.47363053,42.2690173 4.55072526,42.2690173 C8.6167579,42.2690173 10.4747463,39.3273278 10.4747463,35.395911 Z M27.62748,34.8460625 L16.2641305,36.303161 C16.5334042,40.179593 18.8491579,42.1865401 22.2689337,42.1865401 C23.7768663,42.1865401 25.3117263,41.8841234 26.4965305,41.3067824 L27.0081505,42.2965098 C25.7156368,42.956328 23.9922853,43.3137295 22.2420063,43.3137295 C18.0682642,43.3137295 14.8908347,40.9768733 14.8908347,35.5333731 C14.8908347,30.3098123 17.8259179,27.835494 21.4611126,27.835494 C25.1501621,27.835494 27.62748,29.9249183 27.62748,34.8460625 Z M26.1464747,34.0762745 C26.1464747,30.3373047 24.1807768,28.8527137 21.4072579,28.8527137 C18.633739,28.8527137 16.2641305,30.8321683 16.2641305,35.3409261 L26.1464747,34.0762745 Z M42.6260242,28.1654031 L34.5208863,48.8946919 L32.8244621,48.8946919 L35.6787632,42.9838204 L29.8085968,28.1654031 L31.4511663,28.1654031 L35.7056905,39.8496839 C35.9480368,40.564487 36.1903832,41.3067824 36.2980926,41.7191688 L36.3519474,41.7191688 C36.4596568,41.3617673 36.5942937,40.7569339 36.9443495,39.8496839 L41.2796558,28.1654031 L42.6260242,28.1654031 Z M57.516859,35.5608655 C57.516859,39.9046687 55.3357421,43.3137295 51.0812179,43.3137295 C46.8266937,43.3137295 44.6455768,39.9046687 44.6455768,35.5608655 C44.6455768,31.2170623 46.8266937,27.835494 51.0812179,27.835494 C55.3357421,27.835494 57.516859,31.2170623 57.516859,35.5608655 Z M56.0627811,35.5333731 C56.0627811,31.9593578 54.5817758,28.8802061 51.0812179,28.8802061 C47.58066,28.8802061 46.0996547,31.9593578 46.0996547,35.5333731 C46.0996547,39.1073884 47.58066,42.2140325 51.0812179,42.2140325 C54.5817758,42.2140325 56.0627811,39.1073884 56.0627811,35.5333731 Z M72.4615484,42.9838204 L71.0074705,42.9838204 L71.0074705,33.2240094 C71.0074705,30.1448577 69.284119,28.8527137 66.2682537,28.8527137 C65.0295947,28.8527137 63.6024442,29.0726531 62.5253495,29.4850395 L62.5253495,42.9838204 L61.0712716,42.9838204 L61.0712716,28.8802061 C62.5792042,28.1928955 64.4910474,27.835494 66.2682537,27.835494 C70.0380853,27.835494 72.4615484,29.3750698 72.4615484,33.2240094 L72.4615484,42.9838204 Z M87.9447853,42.3240022 C86.7869084,42.956328 84.92892,43.3137295 83.1786411,43.3137295 C78.3586421,43.3137295 76.0159611,40.2620703 76.0159611,35.6983276 C76.0159611,30.9696305 78.8433347,27.8904788 83.4748421,27.8904788 C84.5788642,27.8904788 85.655959,28.0554334 86.5176347,28.2753728 L86.5176347,21.4022664 L87.9447853,21.4022664 L87.9447853,42.3240022 Z M86.5176347,41.6916764 L86.5176347,29.2376077 C85.7098137,29.0451607 84.6865737,28.9076986 83.6902611,28.9076986 C79.3818821,28.9076986 77.470039,31.711926 77.470039,35.6983276 C77.470039,39.5197748 79.1664632,42.2690173 83.3132779,42.2690173 C84.4711547,42.2690173 85.6290316,42.0765704 86.5176347,41.6916764 Z M98.3681424,0.176341255 L99.8043267,-1.24289468e-13 L110.059221,83.5194096 L108.623036,83.6957509 L98.3681424,0.176341255 Z" id="Combined-Shape"></path>
            </g>
            <path d="M267.418399,41.6624822 L262,41.6624822 L262,31.0332687 L267.418399,31.0332687 L267.418399,31.6357968 L262.855537,31.6357968 L262.855537,35.838044 L266.998136,35.838044 L266.998136,36.4405721 L262.855537,36.4405721 L262.855537,41.0445047 L267.418399,41.0445047 L267.418399,41.6624822 Z M279.443444,41.6624822 L278.557888,41.6624822 L272.524103,32.7945047 C272.223914,32.3464709 271.998773,31.9911339 271.788641,31.6357968 L271.758622,31.6357968 C271.788641,32.1301788 271.803651,32.5164148 271.803651,33.0416957 L271.803651,41.6624822 L271.083199,41.6624822 L271.083199,31.0332687 L272.163877,31.0332687 L278.032558,39.6386058 C278.332747,40.07119 278.542879,40.4265271 278.75301,40.8127631 L278.783029,40.8127631 C278.738001,40.3183811 278.722992,39.9012462 278.722992,39.4532125 L278.722992,31.0332687 L279.443444,31.0332687 L279.443444,41.6624822 Z M289.712386,31.6357968 L286.710503,31.6357968 L286.710503,41.6624822 L285.854966,41.6624822 L285.854966,31.6357968 L282.853083,31.6357968 L282.853083,31.0332687 L289.712386,31.0332687 L289.712386,31.6357968 Z M298.540425,41.6624822 L293.122025,41.6624822 L293.122025,31.0332687 L298.540425,31.0332687 L298.540425,31.6357968 L293.977562,31.6357968 L293.977562,35.838044 L298.120161,35.838044 L298.120161,36.4405721 L293.977562,36.4405721 L293.977562,41.0445047 L298.540425,41.0445047 L298.540425,41.6624822 Z M309.034508,41.6624822 L307.96884,41.6624822 L305.777465,38.4644485 C305.177088,37.5838305 304.201476,36.826808 303.090779,36.6259653 L303.090779,41.6624822 L302.250252,41.6624822 L302.250252,31.4040552 C302.985713,31.0641676 303.976335,30.8478754 304.966956,30.8478754 C307.383472,30.8478754 308.749329,31.9138867 308.749329,33.7987181 C308.749329,35.5136058 307.413491,36.6723136 304.996975,36.7804597 L304.996975,36.8113586 C305.582343,37.1203473 306.212738,37.7537743 306.633002,38.3254035 L309.034508,41.6624822 Z M307.878783,33.7987181 C307.878783,32.2692238 306.918181,31.4349541 304.966956,31.4349541 C304.276523,31.4349541 303.616109,31.5431002 303.090779,31.7439429 L303.090779,36.1779316 C303.481024,36.2551788 304.021363,36.3015271 304.441627,36.3015271 C306.693039,36.3015271 307.878783,35.2664148 307.878783,33.7987181 Z M319.33347,33.9841114 C319.33347,35.8843923 317.937594,37.1357968 315.160852,37.1357968 C314.605503,37.1357968 314.050155,37.0894485 313.524825,37.0122013 L313.524825,41.6624822 L312.684298,41.6624822 L312.684298,31.4040552 C313.449778,31.0487181 314.380362,30.8478754 315.401003,30.8478754 C317.967613,30.8478754 319.33347,31.9911339 319.33347,33.9841114 Z M318.462923,33.9841114 C318.462923,32.3464709 317.502321,31.4349541 315.401003,31.4349541 C314.740588,31.4349541 314.095183,31.5122013 313.524825,31.713044 L313.524825,36.3942238 C314.035146,36.5023698 314.605503,36.5487181 315.160852,36.5487181 C317.502321,36.5487181 318.462923,35.5445047 318.462923,33.9841114 Z M329.857572,41.6624822 L328.791904,41.6624822 L326.600529,38.4644485 C326.000152,37.5838305 325.02454,36.826808 323.913843,36.6259653 L323.913843,41.6624822 L323.073316,41.6624822 L323.073316,31.4040552 C323.808777,31.0641676 324.799399,30.8478754 325.79002,30.8478754 C328.206536,30.8478754 329.572393,31.9138867 329.572393,33.7987181 C329.572393,35.5136058 328.236555,36.6723136 325.820039,36.7804597 L325.820039,36.8113586 C326.405406,37.1203473 327.035802,37.7537743 327.456066,38.3254035 L329.857572,41.6624822 Z M328.701847,33.7987181 C328.701847,32.2692238 327.741244,31.4349541 325.79002,31.4349541 C325.099587,31.4349541 324.439173,31.5431002 323.913843,31.7439429 L323.913843,36.1779316 C324.304088,36.2551788 324.844427,36.3015271 325.264691,36.3015271 C327.516103,36.3015271 328.701847,35.2664148 328.701847,33.7987181 Z M334.467965,41.6624822 L333.612428,41.6624822 L333.612428,31.0332687 L334.467965,31.0332687 L334.467965,41.6624822 Z M344.646851,38.8815833 C344.646851,40.7355159 343.220956,41.8478754 340.999562,41.8478754 C340.008941,41.8478754 339.018319,41.6624822 338.23783,41.2916957 L338.523009,40.7200664 C339.288489,41.0445047 340.159035,41.198999 340.999562,41.198999 C342.695627,41.198999 343.761295,40.3492799 343.761295,38.9279316 C343.761295,35.9770889 338.507999,37.0122013 338.507999,33.5978754 C338.507999,31.960235 339.7838,30.8478754 341.82508,30.8478754 C342.770674,30.8478754 343.64122,31.0332687 344.316644,31.4040552 L344.031465,31.9447855 C343.416079,31.6048979 342.680617,31.465853 341.82508,31.465853 C340.309129,31.465853 339.393555,32.3310215 339.393555,33.5515271 C339.393555,36.3787743 344.646851,35.3282125 344.646851,38.8815833 Z M353.940181,41.6624822 L348.521782,41.6624822 L348.521782,31.0332687 L353.940181,31.0332687 L353.940181,31.6357968 L349.377318,31.6357968 L349.377318,35.838044 L353.519917,35.838044 L353.519917,36.4405721 L349.377318,36.4405721 L349.377318,41.0445047 L353.940181,41.0445047 L353.940181,41.6624822 Z M371.010891,38.2481563 C371.010891,40.5655721 369.660043,41.8478754 367.408631,41.8478754 C365.157218,41.8478754 363.82138,40.5655721 363.82138,38.2481563 L363.82138,31.0332687 L364.676917,31.0332687 L364.676917,38.2481563 C364.676917,40.07119 365.682548,41.1372013 367.453659,41.1372013 C369.22477,41.1372013 370.230401,40.07119 370.230401,38.2481563 L370.230401,31.0332687 L371.010891,31.0332687 L371.010891,38.2481563 Z M382.525615,41.6624822 L381.474956,41.6624822 L378.458063,36.7495608 L378.428044,36.7495608 L375.321095,41.6624822 L374.375502,41.6624822 L378.02279,36.1315833 L374.765747,31.0332687 L375.786387,31.0332687 L378.458063,35.4209091 L378.488082,35.4209091 L381.309852,31.0332687 L382.225427,31.0332687 L378.893336,36.0388867 L382.525615,41.6624822 Z M400.887135,35.2664148 L398.890882,35.6063024 L398.890882,41.2916957 C398.18544,41.6470327 397.059733,41.8478754 395.934027,41.8478754 C393.337398,41.8478754 391.881485,40.843662 391.881485,38.9588305 C391.881485,37.2593923 393.307379,36.2551788 395.108509,35.8225945 L395.108509,35.7916957 C393.457473,35.4672575 392.616946,34.4939429 392.616946,33.2734372 C392.616946,31.8366395 393.772671,30.8478754 395.528773,30.8478754 C396.429338,30.8478754 397.224837,31.0487181 397.780185,31.4040552 L397.510016,31.9293361 C397.044724,31.6357968 396.354291,31.4195047 395.663858,31.4195047 C394.31301,31.4195047 393.442464,32.0529316 393.442464,33.2734372 C393.442464,34.4784934 394.56817,35.3900103 395.979055,35.3900103 C396.774554,35.3900103 397.585063,35.3127631 398.365553,35.1582687 L400.767059,34.6638867 L400.887135,35.2664148 Z M398.095383,40.9363586 L398.095383,35.7453473 C394.267982,36.3478754 392.76704,37.1975945 392.76704,38.9588305 C392.76704,40.4265271 393.922765,41.2453473 395.949037,41.2453473 C396.744536,41.2453473 397.525025,41.1526507 398.095383,40.9363586 Z M418.453155,36.2088305 C418.453155,39.4532125 416.606997,41.8478754 413.455019,41.8478754 C412.41937,41.8478754 411.338692,41.6470327 410.528183,41.2916957 L410.528183,31.4040552 C411.36871,31.0487181 412.329313,30.8478754 413.455019,30.8478754 C416.622006,30.8478754 418.453155,32.9644485 418.453155,36.2088305 Z M417.537581,36.2088305 C417.537581,33.3661339 416.216752,31.4349541 413.455019,31.4349541 C412.734567,31.4349541 412.029125,31.5122013 411.38372,31.7284934 L411.38372,40.8900103 C411.879031,41.090853 412.689539,41.2298979 413.455019,41.2298979 C416.216752,41.2298979 417.537581,39.0515271 417.537581,36.2088305 Z M427.776504,41.6624822 L422.358105,41.6624822 L422.358105,31.0332687 L427.776504,31.0332687 L427.776504,31.6357968 L423.213642,31.6357968 L423.213642,35.838044 L427.356241,35.838044 L427.356241,36.4405721 L423.213642,36.4405721 L423.213642,41.0445047 L427.776504,41.0445047 L427.776504,41.6624822 Z M438.795918,31.0332687 L435.088592,41.6624822 L434.443187,41.6624822 L430.675823,31.0332687 L431.621417,31.0332687 L434.35313,39.1596732 C434.533243,39.715853 434.698347,40.3801788 434.758385,40.6582687 L434.788403,40.6582687 C434.848441,40.4265271 434.968516,39.8548979 435.208667,39.1596732 L437.940381,31.0332687 L438.795918,31.0332687 Z M447.608947,41.6624822 L442.190547,41.6624822 L442.190547,31.0332687 L447.608947,31.0332687 L447.608947,31.6357968 L443.046084,31.6357968 L443.046084,35.838044 L447.188683,35.838044 L447.188683,36.4405721 L443.046084,36.4405721 L443.046084,41.0445047 L447.608947,41.0445047 L447.608947,41.6624822 Z M456.467004,41.6624822 L451.333784,41.6624822 L451.333784,31.0332687 L452.18932,31.0332687 L452.18932,41.0445047 L456.467004,41.0445047 L456.467004,41.6624822 Z M468.086794,36.3478754 C468.086794,39.3759653 466.570843,41.8478754 463.628997,41.8478754 C460.687152,41.8478754 459.171201,39.3759653 459.171201,36.3478754 C459.171201,33.3197855 460.687152,30.8478754 463.628997,30.8478754 C466.570843,30.8478754 468.086794,33.3197855 468.086794,36.3478754 Z M467.17122,36.332426 C467.17122,33.7678193 466.12056,31.465853 463.628997,31.465853 C461.137434,31.465853 460.086775,33.7678193 460.086775,36.332426 C460.086775,38.8970327 461.137434,41.198999 463.628997,41.198999 C466.12056,41.198999 467.17122,38.8970327 467.17122,36.332426 Z M478.640915,33.9841114 C478.640915,35.8843923 477.24504,37.1357968 474.468298,37.1357968 C473.912949,37.1357968 473.357601,37.0894485 472.832271,37.0122013 L472.832271,41.6624822 L471.991744,41.6624822 L471.991744,31.4040552 C472.757224,31.0487181 473.687808,30.8478754 474.708448,30.8478754 C477.275059,30.8478754 478.640915,31.9911339 478.640915,33.9841114 Z M477.770369,33.9841114 C477.770369,32.3464709 476.809767,31.4349541 474.708448,31.4349541 C474.048034,31.4349541 473.402629,31.5122013 472.832271,31.713044 L472.832271,36.3942238 C473.342591,36.5023698 473.912949,36.5487181 474.468298,36.5487181 C476.809767,36.5487181 477.770369,35.5445047 477.770369,33.9841114 Z M493.427692,41.6624822 L492.572156,41.6624822 L491.356393,32.7790552 C491.296355,32.3310215 491.266336,31.8675384 491.251327,31.5585496 L491.221308,31.5585496 C491.16127,31.8520889 491.041195,32.3310215 490.891101,32.7790552 L487.844189,41.6624822 L487.153756,41.6624822 L484.136863,32.7636058 C483.986769,32.3310215 483.866694,31.8057406 483.821666,31.5585496 L483.791647,31.5585496 C483.776637,31.8057406 483.731609,32.3310215 483.671572,32.7636058 L482.42579,41.6624822 L481.66031,41.6624822 L483.296336,31.0332687 L484.271948,31.0332687 L487.168766,39.5922575 C487.30385,39.9784934 487.423926,40.4419766 487.498973,40.8127631 L487.528992,40.8127631 C487.604039,40.4265271 487.709105,39.9784934 487.844189,39.5922575 L490.816054,31.0332687 L491.791666,31.0332687 L493.427692,41.6624822 Z M502.706013,41.6624822 L497.287614,41.6624822 L497.287614,31.0332687 L502.706013,31.0332687 L502.706013,31.6357968 L498.143151,31.6357968 L498.143151,35.838044 L502.28575,35.838044 L502.28575,36.4405721 L498.143151,36.4405721 L498.143151,41.0445047 L502.706013,41.0445047 L502.706013,41.6624822 Z M514.731058,41.6624822 L513.845502,41.6624822 L507.811717,32.7945047 C507.511528,32.3464709 507.286387,31.9911339 507.076255,31.6357968 L507.046236,31.6357968 C507.076255,32.1301788 507.091265,32.5164148 507.091265,33.0416957 L507.091265,41.6624822 L506.370813,41.6624822 L506.370813,31.0332687 L507.451491,31.0332687 L513.320172,39.6386058 C513.620361,40.07119 513.830493,40.4265271 514.040624,40.8127631 L514.070643,40.8127631 C514.025615,40.3183811 514.010606,39.9012462 514.010606,39.4532125 L514.010606,31.0332687 L514.731058,31.0332687 L514.731058,41.6624822 Z M525,31.6357968 L521.998117,31.6357968 L521.998117,41.6624822 L521.14258,41.6624822 L521.14258,31.6357968 L518.140697,31.6357968 L518.140697,31.0332687 L525,31.0332687 L525,31.6357968 Z" id="Enterprise-UX-&amp;-Deve" fill="#5C5454"></path>
        </g>
    </g>
</svg>